<svg width="80.000000" height="151.000000" viewBox="0 0 80 151" fill="none" xmlns="http://www.w3.org/2000/svg" xmlns:xlink="http://www.w3.org/1999/xlink">
	<desc>
			Created with Pixso.
	</desc>
	<defs>
		<clipPath id="clip2276_155">
			<rect id="banner-info-decor 1" rx="-0.500000" width="79.000000" height="150.000000" transform="translate(0.500000 0.500000)" fill="white" fill-opacity="0"/>
		</clipPath>
	</defs>
	<g clip-path="url(#clip2276_155)">
		<mask id="mask2276_161" mask-type="alpha" maskUnits="userSpaceOnUse" x="0.000000" y="0.000000" width="80.000000" height="151.000000">
			<path id="Vector" d="M0 0L80 0L80 151L0 151L0 0Z" fill="#000000" fill-opacity="1.000000" fill-rule="evenodd"/>
		</mask>
		<g mask="url(#mask2276_161)">
			<mask id="mask2276_158" mask-type="alpha" maskUnits="userSpaceOnUse" x="-569.000000" y="0.000000" width="649.000000" height="151.000000">
				<path id="Vector" d="M5.2 0C9.85 0 13 5.34 13 10L13 45C13 56.04 21.95 65 33 65L70 65C75.52 65 80 69.47 80 75L80 131C80 142.04 71.04 151 60 151L-549 151C-560.05 151 -569 142.04 -569 131L-569 20C-569 8.95 -560.05 0 -549 0L5.2 0Z" fill="#FFFFFF" fill-opacity="1.000000" fill-rule="evenodd"/>
			</mask>
			<g mask="url(#mask2276_158)">
				<path id="Vector" d="M14 45L14 10L12 10L12 45L14 45ZM33 64C22.5 64 14 55.49 14 45L12 45C12 56.59 21.4 66 33 66L33 64ZM70 64L33 64L33 66L70 66L70 64ZM79 75L79 131L81 131L81 75L79 75ZM79 131C79 141.49 70.49 150 60 150L60 152C71.59 152 81 142.59 81 131L79 131ZM60 150L-549 150L-549 152L60 152L60 150ZM-549 150C-559.5 150 -568 141.49 -568 131L-570 131C-570 142.59 -560.6 152 -549 152L-549 150ZM-568 131L-568 20L-570 20L-570 131L-568 131ZM-568 20C-568 9.5 -559.5 1 -549 1L-549 -1C-560.6 -1 -570 8.4 -570 20L-568 20ZM-549 1L5.2 1L5.2 -1L-549 -1L-549 1ZM70 66C74.97 66 79 70.02 79 75L81 75C81 68.92 76.07 64 70 64L70 66ZM14 10C14 7.46 13.15 4.76 11.66 2.67C10.16 0.58 7.94 -1 5.2 -1L5.2 1C7.11 1 8.78 2.09 10.03 3.83C11.27 5.58 12 7.87 12 10L14 10Z" fill="#FFFFFF" fill-opacity="1.000000" fill-rule="nonzero"/>
			</g>
		</g>
	</g>
</svg>
