<svg width="31.250000" height="18.750000" viewBox="0 0 31.25 18.75" fill="none" xmlns="http://www.w3.org/2000/svg" xmlns:xlink="http://www.w3.org/1999/xlink">
	<desc>
			Created with Pixso.
	</desc>
	<defs/>
	<path d="M26.44 11.45C26.1 11 26.03 10.54 26.21 10.07C26.67 8.82 33.35 0.88 30.57 0.88C28.66 0.91 26.35 0.88 24.52 0.88C24.18 0.96 23.96 1.14 23.82 1.5C22.75 3.98 21.43 7 19.51 8.94C19.26 9.14 19.1 9.13 18.81 9.06C17.46 7.64 18.9 2.77 18.08 0.85C17.92 0.47 17.56 0.3 17.2 0.2C15.37 -0.23 11.19 0.03 10.5 0.91C10.31 1.16 10.28 1.29 10.42 1.32C11.07 1.42 11.53 1.66 11.8 2.05C12.31 3.18 12.69 9.18 11.19 9.18C9.68 9.18 7.25 3.29 6.58 1.66C6.41 1.17 5.95 0.89 5.48 0.8L1.02 0.84C0.24 0.84 -0.2 1.22 0.08 2C2.4 7.76 7.48 18.93 15.27 18.65C16.05 18.65 17.39 18.95 18 18.27C18.84 17.16 17.81 15.18 19.25 14.43C19.61 14.23 19.99 14.39 20.3 14.63C21.9 15.85 22.74 17.98 24.71 18.63C25.06 18.75 25.36 18.77 25.63 18.72L29.79 18.65C30.56 18.65 31.32 18.3 31.16 17.38C30.56 15.4 28.14 13.36 26.44 11.45Z" fill="#7027E2" fill-opacity="1.000000" fill-rule="nonzero"/>
</svg>
