<svg width="28.000000" height="28.000000" viewBox="0 0 28 28" fill="none" xmlns="http://www.w3.org/2000/svg" xmlns:xlink="http://www.w3.org/1999/xlink">
	<desc>
			Created with Pixso.
	</desc>
	<defs/>
	<path d="M12.29 0.05C7.91 0.73 4.58 2.81 2.23 6.31C1.25 7.77 0.62 9.26 0.2 11.12C0.03 11.88 0 12.31 0 13.97C-0.01 15.68 0.02 16.04 0.21 16.89C0.58 18.53 1.2 20.06 2.07 21.47L2.39 21.99L1.73 24.41C1.36 25.74 1.04 26.9 1.01 26.98C0.98 27.06 1.01 27.12 1.08 27.12C1.15 27.12 2.36 26.82 3.77 26.46C6.26 25.81 6.34 25.8 6.58 25.95C7.07 26.27 8.9 27.11 9.62 27.35C11.15 27.85 12.11 27.99 13.93 28C15.79 28 16.61 27.88 18.18 27.38C20.39 26.68 22.14 25.61 23.85 23.92C25.88 21.9 27.12 19.66 27.74 16.87C28.01 15.62 28.08 13.35 27.88 12C27.2 7.46 24.29 3.46 20.17 1.43C18.19 0.45 16.1 -0.03 13.85 0C13.12 0 12.42 0.02 12.29 0.05ZM9.23 6.31C9.35 6.36 9.51 6.5 9.58 6.61C9.79 6.95 11.17 10.32 11.17 10.51C11.17 10.8 10.84 11.34 10.29 11.95C9.93 12.36 9.77 12.61 9.77 12.79C9.77 13.41 11.7 15.71 13.09 16.74C13.88 17.32 15.77 18.29 16.13 18.29C16.37 18.29 16.71 17.95 17.6 16.82C18.2 16.07 18.23 16.04 18.54 16.09C18.71 16.12 19.69 16.56 20.7 17.06L22.54 17.97L22.57 18.43C22.64 19.49 22.24 20.44 21.49 21.02C20.39 21.88 19.07 22.23 17.75 22.02C16.13 21.78 13.48 20.64 11.97 19.55C9.1 17.49 6.24 13.86 5.59 11.46C5.42 10.84 5.43 9.63 5.61 8.95C5.89 7.89 6.74 6.72 7.47 6.38C7.9 6.19 8.88 6.15 9.23 6.31Z" fill="#7027E2" fill-opacity="1.000000" fill-rule="evenodd"/>
</svg>
