<svg width="649.000000" height="151.000000" viewBox="0 0 649 151" fill="none" xmlns="http://www.w3.org/2000/svg" xmlns:xlink="http://www.w3.org/1999/xlink">
	<desc>
			Created with Pixso.
	</desc>
	<defs>
		<clipPath id="clip38_178">
			<rect id="Calendar" rx="-0.500000" width="31.000000" height="31.000000" transform="translate(608.500000 10.500000)" fill="white" fill-opacity="0"/>
		</clipPath>
	</defs>
	<mask id="mask_38_173" fill="white">
		<path id="Subtract" d="M574.204 0L20 0C8.95435 0 0 8.95428 0 20L0 131C0 142.046 8.95435 151 20 151L629 151C640.046 151 649 142.046 649 131L649 75C649 69.4772 644.523 65 639 65L602 65C590.954 65 582 56.0457 582 45L582 10C582 5.34808 578.855 0 574.204 0Z" clip-rule="evenodd" fill="" fill-opacity="1.000000" fill-rule="evenodd"/>
	</mask>
	<path id="Subtract" d="M20 0L574.204 0C578.855 0 582 5.34808 582 10L582 45C582 56.0457 590.954 65 602 65L639 65C644.523 65 649 69.4772 649 75L649 131C649 142.046 640.046 151 629 151L20 151C8.95435 151 0 142.046 0 131L0 20C0 8.95428 8.95435 0 20 0ZM20 1L574.204 1C576.075 1 577.684 1.94531 579.032 3.836C580.344 5.67651 581 7.7312 581 10L581 45C581 50.7989 583.05 55.7487 587.151 59.8492C591.251 63.9497 596.201 66 602 66L639 66C641.485 66 643.606 66.8787 645.364 68.636C647.121 70.3934 648 72.5148 648 75L648 131C648 136.247 646.145 140.725 642.435 144.435C638.725 148.145 634.247 150 629 150L20 150C14.7532 150 10.2749 148.145 6.56494 144.435C2.85498 140.725 1 136.247 1 131L1 20C1 14.7533 2.85498 10.275 6.56494 6.56494C10.2749 2.85498 14.7534 1 20 1Z" clip-rule="evenodd" fill="#FFFFFF" fill-opacity="1.000000" fill-rule="evenodd"/>
</svg>
