<svg width="1918.000000" height="24.000000" viewBox="0 0 1918 24" fill="none" xmlns="http://www.w3.org/2000/svg" xmlns:xlink="http://www.w3.org/1999/xlink">
	<desc>
			Created with Pixso.
	</desc>
	<defs>
		<clipPath id="clip7_167">
			<rect id="фрейм 3" width="1918.000000" height="24.000000" fill="white" fill-opacity="0"/>
		</clipPath>
	</defs>
	<g clip-path="url(#clip7_167)">
		<path id="Subtract" d="M10.0021 -71L1908 -71C1913.52 -71 1918 -66.5229 1918 -61L1918 24C1917.48 10.6565 1906.47 0 1893 0L1634.82 0C1629.76 0 1625.6 -3.83118 1624.12 -8.67239C1617.85 -29.1269 1598.81 -44 1576.3 -44L550.478 -44C527.969 -44 508.935 -29.1269 502.665 -8.67236C501.182 -3.83112 497.023 0 491.959 0L25 0C11.5278 0 0.544525 10.6565 0.0196228 24L0.0020752 -60.9979C0.0020752 -66.5216 4.47842 -71 10.0021 -71Z" clip-rule="evenodd" fill="#7027E2" fill-opacity="1.000000" fill-rule="evenodd"/>
	</g>
</svg>
