<svg width="93.000000" height="71.000000" viewBox="0 0 93 71" fill="none" xmlns="http://www.w3.org/2000/svg" xmlns:xlink="http://www.w3.org/1999/xlink">
	<desc>
			Created with Pixso.
	</desc>
	<defs>
		<clipPath id="clip7_167">
			<rect id="фрейм 3" width="93.000000" height="71.000000" fill="white" fill-opacity="0"/>
		</clipPath>
	</defs>
	<g clip-path="url(#clip7_167)">
		<path id="Subtract" d="M-445.998 0L1452 0C1457.52 0 1462 4.47714 1462 10L1462 95C1461.48 81.6565 1450.47 71 1437 71L1178.82 71C1173.76 71 1169.6 67.1688 1168.12 62.3276C1161.85 41.8731 1142.81 27 1120.3 27L94.4781 27C71.9695 27 52.9348 41.8731 46.6654 62.3276C45.1816 67.1689 41.0226 71 35.959 71L-431 71C-444.472 71 -455.455 81.6565 -455.98 95L-455.998 10.0021C-455.998 4.47842 -451.522 0 -445.998 0Z" clip-rule="evenodd" fill="#7027E2" fill-opacity="1.000000" fill-rule="evenodd"/>
	</g>
</svg>
