<svg width="24.000000" height="24.000000" viewBox="0 0 24 24" fill="none" xmlns="http://www.w3.org/2000/svg" xmlns:xlink="http://www.w3.org/1999/xlink">
	<desc>
			Created with Pixso.
	</desc>
	<defs>
		<clipPath id="clip7_167">
			<rect id="фрейм 3" width="24.000000" height="24.000000" fill="white" fill-opacity="0"/>
		</clipPath>
	</defs>
	<g clip-path="url(#clip7_167)">
		<path id="Subtract" d="M-1884 -72L14 -72C19.5229 -72 24 -67.5229 24 -62L24 23C23.4751 9.65646 12.4722 -1 -1 -1L-259.177 -1C-264.24 -1 -268.399 -4.83109 -269.883 -9.67236C-276.152 -30.1269 -295.188 -45 -317.696 -45L-1343.52 -45C-1366.03 -45 -1385.07 -30.1269 -1391.33 -9.67236C-1392.82 -4.83112 -1396.98 -1 -1402.04 -1L-1869 -1C-1882.47 -1 -1893.46 9.65646 -1893.98 23L-1894 -61.9979C-1894 -67.5216 -1889.52 -72 -1884 -72Z" clip-rule="evenodd" fill="#7027E2" fill-opacity="1.000000" fill-rule="evenodd"/>
	</g>
</svg>
