<svg width="80.000000" height="151.000000" viewBox="0 0 80 151" fill="none" xmlns="http://www.w3.org/2000/svg" xmlns:xlink="http://www.w3.org/1999/xlink">
	<desc>
			Created with Pixso.
	</desc>
	<defs>
		<clipPath id="clip20_146">
			<rect id="Calendar" rx="-0.500000" width="31.000000" height="31.000000" transform="translate(39.500000 9.500000)" fill="white" fill-opacity="0"/>
		</clipPath>
		<clipPath id="clip20_136">
			<rect id="фрейм 4" width="80.000000" height="151.000000" fill="white" fill-opacity="0"/>
		</clipPath>
	</defs>
	<g clip-path="url(#clip20_136)">
		<mask id="mask_20_141" fill="white">
			<path id="Subtract" d="M5.20361 -9.1549e-07L-549 0C-560.046 0 -569 8.95431 -569 20L-569 131C-569 142.046 -560.046 151 -549 151L60 151C71.0457 151 80 142.046 80 131L80 75C80 69.4771 75.5229 65 70 65L33 65C21.9543 65 13 56.0457 13 45L13 10C13 5.34805 9.85547 -9.1549e-07 5.20361 -9.1549e-07Z" clip-rule="evenodd" fill="" fill-opacity="1.000000" fill-rule="evenodd"/>
		</mask>
		<path id="Subtract" d="M-549 0L5.20361 0C9.85547 0 13 5.34805 13 10L13 45C13 56.0457 21.9543 65 33 65L70 65C75.5229 65 80 69.4771 80 75L80 131C80 142.046 71.0457 151 60 151L-549 151C-560.046 151 -569 142.046 -569 131L-569 20C-569 8.95431 -560.046 0 -549 0ZM-549 1L5.20361 0.999999Q5.91818 0.999999 6.58184 1.1838Q8.52512 1.72197 10.032 3.83598Q10.996 5.18839 11.4878 6.69495Q12 8.26388 12 10L12 45Q12 49.3487 13.5374 53.0606Q15.0751 56.7735 18.1509 59.8492Q21.2267 62.925 24.9395 64.4627Q28.6514 66 33 66L70 66Q71.8643 66 73.4554 66.6592Q75.0462 67.3182 76.364 68.636Q77.6821 69.9542 78.3411 71.5453Q79 73.1362 79 75L79 131Q79 134.935 77.6089 138.294Q76.2176 141.652 73.4351 144.435Q70.6539 147.216 67.2967 148.608Q63.9369 150 60 150L-549 150Q-552.935 150 -556.294 148.609Q-559.653 147.217 -562.435 144.435Q-565.218 141.652 -566.609 138.294Q-568 134.935 -568 131L-568 20Q-568 16.0649 -566.609 12.7062Q-565.218 9.34743 -562.435 6.56497Q-559.653 3.78258 -556.294 2.39134Q-552.935 1 -549 1Z" clip-rule="evenodd" fill="#FFFFFF" fill-opacity="1.000000" fill-rule="evenodd"/>
		<path id="Когда:" d="M-536.68 49L-536.68 67L-535.55 67L-527.87 57.86L-521.7 67L-520.11 67L-526.93 56.76L-520.41 49L-521.99 49L-535.33 64.79L-535.33 49L-536.68 49ZM-515.94 66.4Q-514.19 67.28 -511.89 67.28Q-509.58 67.28 -507.83 66.4Q-506.62 65.79 -505.78 64.85Q-505.4 64.42 -505.1 63.92Q-504.92 63.64 -504.77 63.34Q-504.11 61.96 -504.11 60.27Q-504.11 58.46 -504.86 57.03Q-504.97 56.82 -505.1 56.62C-505.75 55.57 -506.66 54.75 -507.83 54.16Q-509.58 53.27 -511.89 53.27Q-514.19 53.27 -515.94 54.16Q-517.14 54.76 -517.99 55.7Q-518.37 56.12 -518.68 56.62Q-518.8 56.82 -518.92 57.03Q-519.66 58.46 -519.66 60.27Q-519.66 61.96 -519 63.34Q-518.85 63.64 -518.68 63.92Q-518.37 64.43 -517.98 64.86Q-517.14 65.79 -515.94 66.4ZM-458.82 60.27L-458.27 67L-459.56 67L-459.9 62.95Q-460.19 63.47 -460.53 63.95Q-461.6 65.45 -463.04 66.32Q-463.12 66.36 -463.2 66.41Q-463.67 66.67 -464.17 66.86Q-465.32 67.28 -466.62 67.28Q-468.33 67.28 -469.73 66.61Q-469.93 66.51 -470.13 66.4Q-470.77 66.02 -471.3 65.53Q-472.04 64.85 -472.55 63.92Q-472.58 63.88 -472.6 63.83Q-473.44 62.28 -473.44 60.27Q-473.44 58.19 -472.55 56.62Q-472.04 55.71 -471.31 55.03Q-470.78 54.53 -470.13 54.16Q-469.92 54.03 -469.7 53.93Q-468.32 53.27 -466.62 53.27Q-465.36 53.27 -464.25 53.67Q-463.71 53.86 -463.2 54.16Q-463.11 54.21 -463.01 54.27Q-461.59 55.14 -460.53 56.62Q-460.19 57.09 -459.9 57.6L-459.56 53.55L-458.27 53.55L-458.82 60.27ZM-491.6 54.73L-491.6 53.55L-501.13 53.55L-501.13 67L-499.84 67L-499.84 54.73L-491.6 54.73ZM-477.18 53.55L-489.04 53.55Q-488.91 54.73 -488.86 56Q-488.8 57.27 -488.8 58.43Q-488.8 64.01 -490.49 65.82L-492.25 65.82L-492.25 70.57L-491.05 70.57L-491.05 67L-475.84 67L-475.84 70.57L-474.64 70.57L-474.64 65.82L-477.18 65.82L-477.18 53.55ZM-478.48 65.82L-478.48 54.73L-487.72 54.73Q-487.63 55.64 -487.6 56.56Q-487.55 57.68 -487.55 58.67Q-487.55 62.36 -488.29 64.51Q-488.57 65.31 -488.92 65.82L-478.48 65.82ZM-508.48 65.34Q-509.92 66.06 -511.89 66.06Q-513.83 66.06 -515.28 65.34Q-516.32 64.82 -517.02 64.02Q-517.3 63.69 -517.52 63.32Q-517.56 63.27 -517.59 63.22Q-518.31 61.96 -518.31 60.27Q-518.31 58.59 -517.59 57.33Q-517.56 57.28 -517.52 57.23Q-517.3 56.86 -517.02 56.53Q-516.32 55.73 -515.28 55.21Q-513.83 54.49 -511.89 54.49Q-509.92 54.49 -508.48 55.21C-507.52 55.69 -506.77 56.36 -506.24 57.23Q-506.21 57.28 -506.18 57.33Q-505.45 58.59 -505.45 60.27Q-505.45 61.96 -506.18 63.22Q-506.21 63.27 -506.24 63.32C-506.77 64.18 -507.52 64.86 -508.48 65.34ZM-471.39 63.29Q-472.09 61.98 -472.09 60.27Q-472.09 58.55 -471.39 57.25Q-470.96 56.48 -470.35 55.91Q-469.94 55.52 -469.44 55.22Q-469.25 55.11 -469.05 55.02Q-467.96 54.49 -466.62 54.49Q-465.53 54.49 -464.56 54.84Q-464.13 55 -463.72 55.22Q-462.4 55.96 -461.37 57.25Q-460.33 58.55 -459.63 60.27Q-460.33 61.98 -461.37 63.29Q-462.4 64.59 -463.72 65.33Q-464.13 65.55 -464.56 65.71Q-465.53 66.06 -466.62 66.06Q-467.96 66.06 -469.05 65.53Q-469.25 65.44 -469.44 65.33Q-469.91 65.05 -470.31 64.68Q-470.95 64.1 -471.39 63.29ZM-454.19 57.31Q-453.98 57.4 -453.73 57.4Q-453.49 57.4 -453.28 57.31Q-453.09 57.23 -452.92 57.06Q-452.75 56.89 -452.67 56.69Q-452.58 56.48 -452.58 56.24Q-452.58 56 -452.67 55.79Q-452.76 55.59 -452.92 55.43Q-453.09 55.26 -453.3 55.17Q-453.5 55.09 -453.73 55.09Q-453.97 55.09 -454.17 55.17Q-454.38 55.26 -454.55 55.43Q-454.71 55.59 -454.79 55.78Q-454.88 55.99 -454.88 56.24Q-454.88 56.49 -454.8 56.7Q-454.71 56.9 -454.55 57.06Q-454.38 57.23 -454.19 57.31ZM-454.19 67.05Q-453.98 67.14 -453.73 67.14Q-453.49 67.14 -453.28 67.06Q-453.09 66.97 -452.92 66.81Q-452.75 66.64 -452.67 66.43Q-452.58 66.23 -452.58 65.99Q-452.58 65.74 -452.67 65.53Q-452.76 65.34 -452.92 65.17Q-453.09 65 -453.3 64.92Q-453.5 64.83 -453.73 64.83Q-453.97 64.83 -454.17 64.92Q-454.38 65 -454.55 65.17Q-454.71 65.33 -454.79 65.52Q-454.88 65.73 -454.88 65.99Q-454.88 66.23 -454.8 66.44Q-454.71 66.64 -454.55 66.81Q-454.38 66.97 -454.19 67.05Z" fill="#FFFFFF" fill-opacity="1.000000" fill-rule="evenodd"/>
		<path id="01 апреля - 28 июня" d="M-531.32 114.96Q-528.29 116.51 -524.19 116.51Q-520.12 116.51 -517.1 114.96Q-515.2 113.98 -513.84 112.51Q-513.03 111.64 -512.41 110.59Q-512.37 110.53 -512.34 110.46Q-510.75 107.69 -510.75 104Q-510.75 100.29 -512.35 97.51Q-512.38 97.46 -512.41 97.41Q-513.04 96.34 -513.87 95.45Q-515.22 94 -517.1 93.03Q-520.12 91.48 -524.19 91.48Q-528.29 91.48 -531.32 93.03C-533.35 94.07 -534.91 95.53 -536.01 97.41Q-536.02 97.42 -536.03 97.43Q-537.66 100.24 -537.66 104Q-537.66 107.74 -536.04 110.54Q-536.03 110.57 -536.01 110.59Q-535.43 111.59 -534.67 112.42Q-533.29 113.95 -531.32 114.96ZM-302.91 95.75C-304.02 97.13 -304.64 98.76 -304.77 100.64L-298.17 100.64C-298.09 99.89 -297.84 99.21 -297.44 98.6C-297.03 98 -296.43 97.51 -295.62 97.14Q-294.4 96.57 -292.48 96.57C-291.45 96.57 -290.59 96.71 -289.88 96.99C-289.18 97.26 -288.65 97.64 -288.31 98.13C-287.95 98.61 -287.77 99.18 -287.77 99.84Q-287.77 100.05 -287.81 100.26Q-287.91 100.92 -288.34 101.53C-288.71 102.07 -289.33 102.65 -290.22 103.28Q-291.55 104.22 -293.95 105.6L-304.25 111.39L-304.25 116L-280.51 116L-280.51 110.75L-294.02 110.75L-290.81 109.14C-288.53 108.03 -286.69 106.97 -285.28 105.96C-283.87 104.95 -282.83 103.91 -282.17 102.86C-281.51 101.81 -281.18 100.67 -281.18 99.45C-281.18 97.87 -281.64 96.48 -282.56 95.29C-283.47 94.1 -284.76 93.17 -286.41 92.5C-288.07 91.82 -290 91.48 -292.22 91.48Q-295.71 91.48 -298.48 92.59Q-301.05 93.61 -302.67 95.47Q-302.79 95.61 -302.91 95.75ZM-255.8 93.29C-257.89 92.08 -260.91 91.48 -264.86 91.48C-268.81 91.48 -271.83 92.08 -273.92 93.29C-276.01 94.5 -277.05 96.17 -277.05 98.33C-277.05 100.25 -276.14 101.7 -274.32 102.68C-273.67 103.03 -272.92 103.31 -272.08 103.52C-273.14 103.73 -274.06 104.04 -274.86 104.46Q-276.31 105.23 -277.04 106.44Q-277.79 107.66 -277.79 109.34Q-277.79 110.79 -277.21 111.95Q-276.41 113.59 -274.46 114.67C-272.24 115.9 -269.04 116.51 -264.86 116.51C-260.66 116.51 -257.45 115.9 -255.24 114.67C-253.03 113.44 -251.93 111.66 -251.93 109.34C-251.93 107.12 -252.9 105.5 -254.84 104.48C-255.65 104.05 -256.59 103.74 -257.66 103.53C-256.81 103.32 -256.05 103.04 -255.39 102.68Q-253.85 101.85 -253.18 100.57Q-252.67 99.58 -252.67 98.33C-252.67 96.17 -253.72 94.5 -255.8 93.29ZM-495.26 116L-495.26 92L-500.13 92L-509.09 93.85L-509.09 98.97L-501.82 97.69L-501.82 116L-495.26 116ZM-261.8 101.23C-262.63 101.41 -263.65 101.5 -264.86 101.5Q-266.66 101.5 -267.91 101.23C-268.74 101.05 -269.36 100.77 -269.79 100.4C-270.22 100.03 -270.43 99.56 -270.43 99C-270.43 98.21 -269.95 97.6 -268.99 97.18C-268.03 96.76 -266.65 96.54 -264.86 96.54C-263.05 96.54 -261.66 96.76 -260.7 97.18C-259.74 97.6 -259.26 98.21 -259.26 99C-259.26 99.56 -259.48 100.03 -259.91 100.4C-260.35 100.77 -260.98 101.05 -261.8 101.23ZM-519.17 109.26C-520.36 110.51 -522.04 111.13 -524.19 111.13C-526.34 111.13 -528.03 110.51 -529.25 109.26C-530.46 108.01 -531.07 106.26 -531.07 104Q-531.07 100.81 -529.49 98.99Q-529.37 98.85 -529.25 98.72Q-528.94 98.41 -528.6 98.15Q-526.88 96.86 -524.19 96.86Q-521.47 96.86 -519.77 98.18Q-519.45 98.43 -519.17 98.72Q-519.07 98.83 -518.97 98.94Q-517.37 100.77 -517.37 104Q-517.37 107.15 -518.93 108.99Q-519.04 109.13 -519.17 109.26ZM-467.12 112.29C-467.97 113.57 -469.01 114.57 -470.25 115.31C-471.61 116.11 -473.15 116.51 -474.88 116.51C-476.67 116.51 -478.24 116.11 -479.6 115.31Q-480.29 114.9 -480.88 114.37Q-482.02 113.36 -482.78 111.92Q-483.93 109.72 -483.93 106.88Q-483.93 103.96 -482.78 101.79Q-482.04 100.39 -480.93 99.38Q-480.32 98.83 -479.6 98.4C-478.24 97.59 -476.67 97.18 -474.88 97.18C-473.15 97.18 -471.61 97.58 -470.25 98.39Q-469.91 98.59 -469.59 98.82Q-468.16 99.83 -467.11 101.38L-466.65 97.72L-459.87 97.72L-461.02 106.85L-459.87 116L-466.65 116L-467.12 112.29ZM-425.02 112.43L-425.02 121.28L-431.58 121.28L-431.58 97.72L-425.02 97.72L-425.02 101.23Q-424.08 99.87 -422.83 98.95Q-422.42 98.64 -421.98 98.39Q-421.6 98.16 -421.19 97.98Q-419.45 97.18 -417.34 97.18C-415.55 97.18 -413.98 97.59 -412.62 98.4C-411.27 99.21 -410.21 100.34 -409.46 101.79C-408.7 103.24 -408.32 104.94 -408.32 106.88C-408.32 108.77 -408.7 110.45 -409.46 111.92C-410.21 113.38 -411.27 114.51 -412.62 115.31C-413.98 116.11 -415.55 116.51 -417.34 116.51Q-419.45 116.51 -421.19 115.72Q-421.6 115.53 -421.98 115.31C-423.19 114.6 -424.2 113.64 -425.02 112.43ZM-400.71 115.29C-398.97 116.1 -397 116.51 -394.78 116.51C-392.92 116.51 -391.19 116.28 -389.58 115.82C-387.97 115.36 -386.54 114.7 -385.28 113.85L-385.28 109.69C-386.37 110.33 -387.58 110.83 -388.91 111.18C-390.24 111.53 -391.58 111.71 -392.93 111.71C-394.4 111.71 -395.64 111.49 -396.66 111.07C-397.67 110.64 -398.44 110.03 -398.96 109.23C-399.06 109.07 -399.15 108.9 -399.24 108.73L-384.8 108.73Q-384.8 105.21 -386.07 102.62C-386.9 100.89 -388.1 99.55 -389.64 98.6C-391.19 97.66 -393.06 97.18 -395.26 97.18C-397.37 97.18 -399.26 97.59 -400.94 98.4C-402.61 99.21 -403.93 100.33 -404.89 101.78C-405.85 103.21 -406.33 104.88 -406.33 106.78Q-406.33 108.98 -405.47 110.78Q-405.2 111.35 -404.83 111.89C-403.83 113.34 -402.45 114.48 -400.71 115.29ZM-399.53 104.79C-399.44 104.49 -399.32 104.21 -399.17 103.95C-398.78 103.28 -398.25 102.75 -397.57 102.36C-396.88 101.98 -396.06 101.78 -395.1 101.78Q-393.78 101.78 -392.85 102.3C-392.22 102.64 -391.71 103.13 -391.32 103.78Q-391.05 104.24 -390.88 104.79L-399.53 104.79ZM-199.66 115.31C-197.92 116.11 -195.9 116.51 -193.6 116.51C-191.29 116.51 -189.27 116.11 -187.54 115.31C-185.8 114.51 -184.44 113.38 -183.47 111.92C-182.5 110.45 -182.01 108.77 -182.01 106.88C-182.01 104.94 -182.5 103.24 -183.47 101.79C-184.44 100.34 -185.8 99.21 -187.54 98.4C-189.27 97.59 -191.29 97.18 -193.6 97.18C-195.9 97.18 -197.92 97.59 -199.66 98.4C-201.4 99.21 -202.75 100.34 -203.71 101.79C-204.2 102.54 -204.57 103.35 -204.81 104.22L-207.68 104.22L-207.68 97.72L-214.24 97.72L-214.24 116L-207.68 116L-207.68 109.05L-204.92 109.05C-204.69 110.08 -204.28 111.04 -203.71 111.92C-202.75 113.38 -201.4 114.51 -199.66 115.31ZM-435.17 116L-435.17 97.72L-456.74 97.72L-456.74 116L-450.17 116L-450.17 102.59L-441.73 102.59L-441.73 116L-435.17 116ZM-359.23 97.72L-379.07 97.72C-378.89 99.26 -378.77 100.66 -378.7 101.93C-378.63 103.2 -378.59 104.34 -378.59 105.34C-378.59 107.43 -378.8 108.93 -379.23 109.85Q-379.53 110.51 -380.05 110.85Q-380.61 111.23 -381.43 111.23C-381.74 111.23 -382.07 111.19 -382.45 111.12C-382.82 111.04 -383.2 110.93 -383.58 110.78L-383.58 115.42C-382.96 115.76 -382.33 116.01 -381.69 116.15C-381.05 116.3 -380.37 116.38 -379.64 116.38C-377.19 116.38 -375.42 115.58 -374.32 114C-373.22 112.41 -372.67 109.82 -372.67 106.24C-372.67 105.43 -372.7 104.51 -372.77 103.49C-372.79 103.2 -372.81 102.9 -372.83 102.59L-365.79 102.59L-365.79 116L-359.23 116L-359.23 97.72ZM-341.91 110.04L-341.91 116L-335.39 116L-335.39 97.72L-348.92 97.72Q-351.07 97.72 -352.72 98.5C-353.82 99.01 -354.67 99.72 -355.28 100.64C-355.88 101.55 -356.19 102.63 -356.19 103.87C-356.19 105.06 -355.88 106.11 -355.28 107.02C-354.67 107.93 -353.82 108.63 -352.72 109.12C-352.46 109.24 -352.19 109.34 -351.91 109.43L-356.7 116L-349.34 116L-345.22 110.04L-341.91 110.04ZM-341.91 105.98L-341.91 101.95L-347.26 101.95C-347.99 101.95 -348.56 102.13 -348.98 102.48C-349.39 102.83 -349.59 103.31 -349.59 103.93C-349.59 104.57 -349.39 105.08 -348.98 105.44C-348.56 105.8 -347.99 105.98 -347.26 105.98L-341.91 105.98ZM-240.86 97.72L-240.86 116L-232.7 116L-224.29 103.44L-224.29 116L-217.86 116L-217.86 97.72L-226.24 97.72L-234.39 109.9L-234.39 97.72L-240.86 97.72ZM-172.73 97.72L-179.26 97.72L-179.26 116L-172.73 116L-172.73 109.08L-164.09 109.08L-164.09 116L-157.57 116L-157.57 97.72L-164.09 97.72L-164.09 104.22L-172.73 104.22L-172.73 97.72ZM-140.25 110.04L-140.25 116L-133.73 116L-133.73 97.72L-147.26 97.72Q-149.41 97.72 -151.05 98.5C-152.15 99.01 -153.01 99.72 -153.62 100.64C-154.22 101.55 -154.52 102.63 -154.52 103.87C-154.52 105.06 -154.22 106.11 -153.62 107.02C-153.01 107.93 -152.15 108.63 -151.05 109.12C-150.79 109.24 -150.52 109.34 -150.24 109.43L-155.04 116L-147.68 116L-143.55 110.04L-140.25 110.04ZM-140.25 105.98L-140.25 101.95L-145.59 101.95C-146.32 101.95 -146.89 102.13 -147.31 102.48C-147.72 102.83 -147.93 103.31 -147.93 103.93C-147.93 104.57 -147.72 105.08 -147.31 105.44C-146.89 105.8 -146.32 105.98 -145.59 105.98L-140.25 105.98ZM-190.93 111.1C-191.66 111.49 -192.55 111.68 -193.6 111.68C-194.64 111.68 -195.54 111.49 -196.29 111.1Q-196.9 110.79 -197.35 110.32Q-197.73 109.93 -198 109.44C-198.39 108.71 -198.59 107.85 -198.59 106.85C-198.59 105.84 -198.39 104.98 -198 104.27C-197.6 103.56 -197.03 103.01 -196.29 102.62C-195.54 102.24 -194.64 102.04 -193.6 102.04C-192.55 102.04 -191.66 102.24 -190.93 102.62C-190.19 103.01 -189.62 103.56 -189.23 104.27C-188.84 104.98 -188.64 105.84 -188.64 106.85C-188.64 107.85 -188.84 108.71 -189.23 109.44C-189.62 110.16 -190.19 110.72 -190.93 111.1ZM-476.75 109.28C-477.12 108.57 -477.31 107.77 -477.31 106.88C-477.31 105.96 -477.12 105.15 -476.75 104.45C-476.38 103.74 -475.86 103.19 -475.2 102.78Q-475.01 102.67 -474.82 102.58Q-473.97 102.18 -472.93 102.18C-472.03 102.18 -471.19 102.38 -470.4 102.78Q-470.14 102.92 -469.89 103.08Q-469.01 103.62 -468.32 104.45C-467.72 105.15 -467.27 105.96 -466.97 106.88C-467.27 107.77 -467.72 108.57 -468.32 109.28Q-469 110.08 -469.86 110.62Q-470.12 110.79 -470.4 110.93C-471.19 111.32 -472.03 111.52 -472.93 111.52Q-474.01 111.52 -474.89 111.09Q-475.05 111.01 -475.2 110.93C-475.86 110.53 -476.38 109.98 -476.75 109.28ZM-415.47 104.45C-415.1 105.15 -414.91 105.96 -414.91 106.88C-414.91 107.77 -415.1 108.57 -415.47 109.28C-415.84 109.98 -416.36 110.53 -417.04 110.93C-417.71 111.32 -418.47 111.52 -419.33 111.52C-420.2 111.52 -421.03 111.32 -421.83 110.93C-422.61 110.53 -423.3 109.98 -423.9 109.28C-424.5 108.57 -424.96 107.77 -425.28 106.88C-424.96 105.96 -424.5 105.15 -423.9 104.45C-423.3 103.74 -422.61 103.19 -421.83 102.78C-421.03 102.38 -420.2 102.18 -419.33 102.18C-418.47 102.18 -417.71 102.38 -417.04 102.78C-416.36 103.19 -415.84 103.74 -415.47 104.45ZM-315.52 102.24L-323.93 102.24L-323.93 107.39L-315.52 107.39L-315.52 102.24ZM-260.24 110.76C-261.29 111.22 -262.83 111.45 -264.86 111.45C-266.89 111.45 -268.43 111.22 -269.49 110.76C-270.54 110.3 -271.07 109.64 -271.07 108.76C-271.07 107.87 -270.54 107.19 -269.49 106.75C-268.43 106.3 -266.89 106.07 -264.86 106.07C-262.83 106.07 -261.29 106.3 -260.24 106.75C-259.18 107.19 -258.66 107.87 -258.66 108.76C-258.66 109.64 -259.18 110.3 -260.24 110.76Z" fill="#FFFFFF" fill-opacity="1.000000" fill-rule="evenodd"/>
		<rect id="Container" rx="9.500000" width="49.000000" height="49.000000" transform="translate(30.500000 0.500000)" stroke="#FFFFFF" stroke-opacity="1.000000" stroke-width="1.000000"/>
	</g>
</svg>
